<svg width="100%" height="100%" viewBox="0 0 1094 292" fill="none" xmlns="http://www.w3.org/2000/svg">
<g opacity="0.6">
<path d="M490.129 201.612L502.186 107.273L514.144 198.228L490.129 201.612ZM521.417 74.3984L485.253 79.4909L457.251 267.121L482 263.638L486.678 227.033L517.496 222.692L522.043 258.001L548.735 254.245L521.417 74.3984Z" fill="#3A3841"/>
<path d="M594.304 142.854L594.403 90.3609L606.534 88.6524C615.997 87.3236 620.115 92.5151 620.09 105.638L620.065 119.81C620.041 134.51 613.963 140.089 604.014 141.492L594.304 142.854ZM607.308 62.2986L567.76 67.8698L567.422 251.604L594.114 247.849L594.263 169.109L603.478 167.813C615.618 166.105 620.214 170.966 620.181 188.026L620.115 221.619C620.09 236.574 621.062 239.331 622.503 243.846L649.681 240.016C647.021 233.57 646.791 227.041 646.807 218.119L646.865 185.831C646.906 165.098 642.557 152.065 629.224 149.482V148.954C641.124 142.029 646.733 129.17 646.766 110.269L646.791 98.986C646.84 70.6348 634.972 58.4028 607.308 62.2986Z" fill="#3A3841"/>
<path d="M698.157 128.22L698.256 75.7271L710.396 74.0186C719.859 72.6898 723.969 77.8813 723.944 91.0046L723.919 105.176C723.894 119.876 717.816 125.455 707.876 126.858L698.157 128.22ZM711.17 47.673L671.613 53.2442L671.276 236.978L697.968 233.223L698.116 154.483L707.34 153.187C719.472 151.479 724.076 156.34 724.043 173.401L723.977 206.993C723.952 221.949 724.916 224.705 726.365 229.22L753.543 225.39C750.883 218.944 750.653 212.416 750.669 203.493L750.727 171.205C750.768 150.472 746.419 137.44 733.086 134.856V134.328C744.986 127.403 750.587 114.552 750.62 95.6431L750.644 84.3604C750.694 56.0091 738.834 43.7772 711.17 47.673Z" fill="#3A3841"/>
<path d="M802.168 34.8553L775.476 38.619L775.138 222.345L801.83 218.59L802.168 34.8553Z" fill="#3A3841"/>
<path d="M907.966 19.9573L883.456 23.4073L865.469 170.264L848.025 28.4007L821.094 32.1891L846.469 212.3L881.907 207.307L907.966 19.9573Z" fill="#3A3841"/>
<path d="M945.34 137.497L957.405 43.1583L969.364 134.113L945.34 137.497ZM976.628 10.2841L940.472 15.3765L912.47 203.007L937.219 199.524L941.897 162.919L972.716 158.577L977.262 193.886L1003.95 190.131L976.628 10.2841Z" fill="#3A3841"/>
<path d="M1049.67 0L1022.98 3.75545L1022.63 187.49L1093.25 177.544L1093.3 151.297L1049.37 157.479L1049.67 0Z" fill="#3A3841"/>
</g>
<path d="M465.877 225.863L477.935 131.524L489.893 222.479L465.877 225.863ZM497.165 98.6498L461.002 103.742L433 291.372L457.749 287.889L462.427 251.284L493.245 246.943L497.791 282.252L524.484 278.497L497.165 98.6498Z" fill="white"/>
<path d="M570.052 167.105L570.151 114.612L582.283 112.904C591.746 111.575 595.863 116.766 595.839 129.89L595.814 144.061C595.789 158.761 589.711 164.34 579.762 165.744L570.052 167.105ZM583.057 86.5499L543.508 92.1211L543.171 275.855L569.863 272.1L570.011 193.36L579.227 192.064C591.367 190.356 595.962 195.217 595.929 212.278L595.863 245.87C595.839 260.825 596.811 263.582 598.252 268.097L625.43 264.267C622.77 257.821 622.539 251.293 622.556 242.37L622.613 210.082C622.655 189.349 618.306 176.316 604.972 173.733V173.205C616.873 166.28 622.482 153.421 622.515 134.52L622.539 123.237C622.589 94.8861 610.721 82.6542 583.057 86.5499Z" fill="white"/>
<path d="M673.906 152.471L674.005 99.9783L686.145 98.2698C695.608 96.941 699.717 102.132 699.693 115.256L699.668 129.427C699.643 144.127 693.565 149.706 683.624 151.11L673.906 152.471ZM686.919 71.9242L647.362 77.4954L647.024 261.23L673.717 257.474L673.865 178.735L683.089 177.439C695.221 175.73 699.824 180.592 699.791 197.652L699.726 231.244C699.701 246.2 700.664 248.956 702.114 253.471L729.292 249.642C726.632 243.195 726.401 236.667 726.418 227.745L726.475 195.456C726.517 174.723 722.168 161.691 708.834 159.107V158.579C720.735 151.654 726.335 138.803 726.368 119.894L726.393 108.612C726.443 80.2604 714.583 68.0285 686.919 71.9242Z" fill="white"/>
<path d="M777.917 59.1067L751.224 62.8703L750.887 246.596L777.579 242.841L777.917 59.1067Z" fill="white"/>
<path d="M883.714 44.2086L859.204 47.6586L841.217 194.516L823.774 52.6521L796.843 56.4405L822.217 236.551L857.656 231.558L883.714 44.2086Z" fill="white"/>
<path d="M921.088 161.749L933.154 67.4097L945.112 158.365L921.088 161.749ZM952.376 34.5354L916.221 39.6279L888.219 227.258L912.968 223.775L917.646 187.17L948.464 182.829L953.01 218.138L979.703 214.382L952.376 34.5354Z" fill="white"/>
<path d="M1025.42 24.2513L998.727 28.0068L998.381 211.741L1069 201.795L1069.05 175.549L1025.12 181.731L1025.42 24.2513Z" fill="white"/>
<path d="M369.258 202.062L264.728 216.785C262.147 217.146 259.79 219.065 258.649 221.734L248.712 244.842C246.485 250.022 249.752 255.257 254.771 254.549L369.197 238.431C371.805 238.063 374.196 236.103 375.323 233.394L380.125 221.863C381.008 219.753 381.008 217.432 380.139 215.567L375.378 205.384C374.25 202.981 371.866 201.694 369.258 202.062Z" fill="url(#paint0_linear_1_322)"/>
<path d="M270.114 222.932C266.773 223.401 264.993 225.811 264.986 229.527C264.979 232.23 265.944 234.047 268.81 236.382C271.052 238.192 271.799 239.302 271.799 241.255C271.799 243.012 271.079 243.719 269.985 243.876C268.898 244.033 268.212 243.522 268.212 241.834V240.214L264.966 240.67V242.018C264.959 245.802 266.643 247.722 270.012 247.252C273.388 246.776 275.195 244.366 275.201 240.513C275.208 237.58 274.278 235.783 271.412 233.448C269.17 231.637 268.389 230.535 268.389 228.813C268.389 227.186 269.055 226.458 270.141 226.301C271.235 226.144 271.86 226.703 271.853 228.391V229.609L275.093 229.153V228.173C275.1 224.388 273.449 222.462 270.114 222.932Z" fill="white"/>
<path d="M288.494 220.679L285.064 221.162L285.043 230.78L281.362 231.297L281.375 221.679L277.945 222.162L277.898 245.789L281.335 245.305L281.355 234.673L285.036 234.156L285.016 244.788L288.453 244.305L288.494 220.679Z" fill="white"/>
<path d="M296.752 240.098C295.659 240.255 294.973 239.71 294.98 238.015L295.007 225.123C295.007 223.435 295.7 222.693 296.793 222.544C297.887 222.387 298.573 222.932 298.566 224.626L298.539 237.518C298.532 239.207 297.846 239.942 296.752 240.098ZM296.793 219.174C293.424 219.651 291.577 222.067 291.57 225.845L291.55 238.267C291.543 242.052 293.384 243.951 296.752 243.474C300.128 242.998 301.969 240.581 301.976 236.797L301.996 224.375C302.003 220.597 300.162 218.698 296.793 219.174Z" fill="white"/>
<path d="M308.51 228.486L308.523 221.23L310.147 220.999C311.24 220.842 311.831 221.305 311.831 222.986L311.824 225.79C311.824 227.479 311.226 228.105 310.133 228.261L308.51 228.486ZM310.147 217.622L305.093 218.337L305.052 241.963L308.482 241.48L308.503 231.862L310.126 231.631C313.556 231.147 315.247 228.853 315.254 225.069L315.261 222.741C315.261 218.963 313.583 217.139 310.147 217.622Z" fill="white"/>
<path d="M334.421 214.205L331.365 214.634L331.338 228.785L327.901 215.124L323.656 215.723L323.615 239.349L326.672 238.921L326.706 221.672L330.917 238.322L334.381 237.832L334.421 214.205Z" fill="white"/>
<path d="M342.681 233.632C341.587 233.788 340.901 233.244 340.908 231.549L340.935 218.657C340.935 216.969 341.628 216.227 342.721 216.077C343.815 215.921 344.501 216.465 344.494 218.16L344.467 231.052C344.467 232.74 343.774 233.475 342.681 233.632ZM342.721 212.701C339.353 213.177 337.505 215.594 337.498 219.372L337.478 231.794C337.471 235.579 339.312 237.478 342.681 237.001C346.056 236.525 347.897 234.108 347.904 230.324L347.924 217.901C347.931 214.13 346.097 212.225 342.721 212.701Z" fill="white"/>
<path d="M366.656 209.665L363.688 210.087L362.099 228.799L360.482 210.537L356.733 211.067L355.042 229.793L353.521 211.517L350.213 211.98L352.386 235.3L356.937 234.66L358.56 218.194L360.122 234.21L364.395 233.605L366.656 209.665Z" fill="white"/>
<path d="M362.139 0.193531L21.5037 48.1675C9.7942 49.8148 0.285303 61.4203 0.258135 74.0945L3.28032e-05 213.81C-0.0203434 226.477 9.45461 235.408 21.1573 233.76L361.793 185.787C369.971 184.636 377.428 178.503 380.96 170.022L411.844 95.8284C414.601 89.2055 414.615 81.9563 411.878 76.1093L381.259 10.5806C377.754 3.08641 370.31 -0.956811 362.139 0.193531Z" fill="url(#paint1_linear_1_322)"/>
<path d="M131.522 49.2432L111.906 52.0067L111.736 142.707L89.6892 55.1378L62.4734 58.97L62.1949 210.495L81.8104 207.732L82.0142 97.1151L109.026 203.899L131.236 200.768L131.522 49.2432Z" fill="white"/>
<path d="M212.959 37.7738L152.93 46.2278L152.645 197.753L212.68 189.299L212.721 167.653L174.699 173.01L174.787 126.466L205.005 122.212L205.046 100.566L174.828 104.82L174.903 64.7694L212.925 59.4193L212.959 37.7738Z" fill="white"/>
<path d="M331.032 21.145L312.021 23.8201L301.792 143.857L291.407 26.7266L267.397 30.1027L256.564 150.228L246.783 33.0092L225.565 35.9974L239.495 185.521L268.715 181.41L279.113 75.8509L289.131 178.531L316.544 174.671L331.032 21.145Z" fill="white"/>
<path d="M392.785 76.4904C385.477 77.5182 379.534 84.7606 379.52 92.6701C379.507 100.58 385.423 106.154 392.731 105.126C400.046 104.099 405.982 96.8562 405.996 88.9468C406.009 81.0305 400.094 75.4558 392.785 76.4904Z" fill="white"/>
<path d="M412.781 37.9847C410.628 38.291 408.489 38.8424 406.383 39.6319C404.148 40.476 402.838 43.1647 403.544 45.4109C404.067 47.0717 405.561 47.9906 407.198 47.7592C407.436 47.7252 407.68 47.6639 407.925 47.5823C408.849 47.2555 409.793 46.99 410.757 46.779C411.328 46.6565 411.891 46.5544 412.455 46.4727C424.233 44.8119 434.101 52.803 434.883 65.0075C435.698 77.7838 426.223 90.3491 413.712 93.065C413.148 93.1875 412.584 93.2896 412.027 93.3645C407.823 93.9567 403.856 93.3168 400.46 91.6968C399.448 91.2135 398.321 91.057 397.18 91.2203C396.433 91.3293 395.679 91.5675 394.952 91.9419C392.405 93.2624 391.828 96.9585 393.926 98.4832C398.036 101.465 402.946 103.098 408.156 103.221C409.65 103.255 411.158 103.166 412.659 102.955C416.388 102.431 420.103 101.158 423.608 99.1843C428.518 96.4139 432.838 92.3639 436.139 87.4494C439.44 82.5281 441.6 76.9194 442.401 71.1677C443.203 65.4159 442.619 59.7323 440.71 54.6953C438.802 49.6583 435.623 45.4313 431.52 42.45C427.411 39.4686 422.501 37.835 417.291 37.7192C415.79 37.6852 414.282 37.7737 412.781 37.9847Z" fill="url(#paint2_linear_1_322)"/>
<defs>
<linearGradient id="paint0_linear_1_322" x1="240.175" y1="196.619" x2="401.649" y2="207.1" gradientUnits="userSpaceOnUse">
<stop stop-color="#DA458F"/>
<stop offset="1" stop-color="#DA34DD"/>
</linearGradient>
<linearGradient id="paint1_linear_1_322" x1="-24.3918" y1="-23.9276" x2="480.02" y2="-0.975817" gradientUnits="userSpaceOnUse">
<stop stop-color="#DA458F"/>
<stop offset="1" stop-color="#DA34DD"/>
</linearGradient>
<linearGradient id="paint2_linear_1_322" x1="389.693" y1="31.0116" x2="450.855" y2="32.2146" gradientUnits="userSpaceOnUse">
<stop stop-color="#DA458F"/>
<stop offset="1" stop-color="#DA34DD"/>
</linearGradient>
</defs>
</svg>
