<svg width="12" height="12" viewBox="0 0 12 12" fill="none" xmlns="http://www.w3.org/2000/svg">
<rect width="12" height="12" rx="6" fill="#17161A"/>
<g clip-path="url(#clip0_3514_59)">
<path d="M9.66668 6L8.85334 5.07L8.96668 3.84L7.76334 3.56667L7.13334 2.5L6.00001 2.98667L4.86668 2.5L4.23668 3.56333L3.03334 3.83333L3.14668 5.06667L2.33334 6L3.14668 6.93L3.03334 8.16333L4.23668 8.43667L4.86668 9.5L6.00001 9.01L7.13334 9.49667L7.76334 8.43333L8.96668 8.16L8.85334 6.93L9.66668 6ZM5.12668 7.33667L4.33334 6.53667C4.30244 6.50583 4.27793 6.4692 4.2612 6.42887C4.24447 6.38855 4.23586 6.34532 4.23586 6.30167C4.23586 6.25801 4.24447 6.21478 4.2612 6.17446C4.27793 6.13413 4.30244 6.0975 4.33334 6.06667L4.35668 6.04333C4.48668 5.91333 4.70001 5.91333 4.83001 6.04333L5.36668 6.58333L7.08334 4.86333C7.21334 4.73333 7.42668 4.73333 7.55668 4.86333L7.58001 4.88667C7.71001 5.01667 7.71001 5.22667 7.58001 5.35667L5.60668 7.33667C5.47001 7.46667 5.26001 7.46667 5.12668 7.33667Z" fill="url(#paint0_linear_3514_59)"/>
<path d="M5.12669 7.33664L4.33335 6.53664C4.30245 6.5058 4.27793 6.46917 4.26121 6.42885C4.24448 6.38853 4.23587 6.3453 4.23587 6.30164C4.23587 6.25799 4.24448 6.21476 4.26121 6.17443C4.27793 6.13411 4.30245 6.09748 4.33335 6.06664L4.35669 6.04331C4.48669 5.91331 4.70002 5.91331 4.83002 6.04331L5.36669 6.58331L7.08335 4.86331C7.21335 4.73331 7.42669 4.73331 7.55669 4.86331L7.58002 4.88664C7.71002 5.01664 7.71002 5.22664 7.58002 5.35664L5.60669 7.33664C5.47002 7.46664 5.26002 7.46664 5.12669 7.33664Z" fill="#F5F8FA"/>
</g>
<defs>
<linearGradient id="paint0_linear_3514_59" x1="2.33334" y1="2.5" x2="9.6829" y2="2.51708" gradientUnits="userSpaceOnUse">
<stop stop-color="#49DD81"/>
<stop offset="1" stop-color="#22B4C6"/>
</linearGradient>
<clipPath id="clip0_3514_59">
<rect x="2" y="2" width="8" height="8" rx="4" fill="white"/>
</clipPath>
</defs>
</svg>
